# File created by Blade
# Date/Time:  Wed Jan 28 15:39:58 2015
#---------------------------------------------------------
:version 1.10
:name HOM
:units
  mass 1.0
  length 1.000000
  angle deg
:documentation
     Acclaim Skeleton File
:root
   axis xyz
   order TX TY TZ RX RY RZ
   position 0.000000 0.000000 0.000000
   orientation 0 0 0
:bonedata
   begin
      id 1
      name Spine_dum
      direction 0.000000 1.000000 0.000000
      length 6.864287
      axis 0.0 0.0 0.0 xyz
   end
   begin
      id 2
      name LeftUpLeg_dum
      direction 1.000000 0.000000 0.000000
      length 4.117376
      axis 0.0 0.0 0.0 xyz
   end
   begin
      id 3
      name RightUpLeg_dum
      direction -1.000000 0.000000 0.000000
      length 4.117376
      axis 0.0 0.0 0.0 xyz
   end
   begin
      id 4
      name Spine
      direction 0.000000 1.000000 0.000000
      length 0.000000
      axis 0.0 0.0 0.0 xyz
      dof rx ry rz
   end
   begin
      id 5
      name Spine_dum1
      direction 0.000000 1.000000 0.000000
      length 15.393827
      axis 0.0 0.0 0.0 xyz
   end
   begin
      id 6
      name Spine_dum2
      direction 0.000000 1.000000 0.000000
      length 9.314826
      axis 0.0 0.0 0.0 xyz
   end
   begin
      id 7
      name Spine_dum3
      direction 0.000000 1.000000 0.000000
      length 9.314826
      axis 0.0 0.0 0.0 xyz
   end
   begin
      id 8
      name Head
      direction 0.000000 1.000000 0.000000
      length 4.527550
      axis 0.0 0.0 0.0 xyz
      dof rx ry rz
   end
   begin
      id 9
      name LeftShoulder
      direction 1.000000 0.000000 0.000000
      length 8.275398
      axis 0.0 0.0 -90.0 xyz
      dof rx ry rz
   end
   begin
      id 10
      name LeftArm
      direction 1.000000 0.000000 0.000000
      length 12.002200
      axis 0.0 0.0 -90.0 xyz
      dof rx ry rz
   end
   begin
      id 11
      name LeftForeArm
      direction 1.000000 0.000000 0.000000
      length 10.144633
      axis 0.0 0.0 -90.0 xyz
      dof ry rz rx
   end
   begin
      id 12
      name LeftHand
      direction 0.000000 0.000000 0.000000
      length 0.000000
      axis 0.0 0.0 -90.0 xyz
      dof rx ry rz
   end
   begin
      id 13
      name LeftHand_dum1
      direction 0.000000 0.000000 0.000000
      length 0.000000
      axis 0.0 0.0 -90.0 xyz
   end
   begin
      id 14
      name LeftHand_dum2
      direction 1.000000 0.000000 0.000000
      length 3.937000
      axis 0.0 0.0 -90.0 xyz
   end
   begin
      id 15
      name LeftHandThumb1
      direction 0.000000 0.000000 1.000000
      length 3.937000
      axis 0.0 0.0 -90.0 xyz
      dof rx rz ry
   end
   begin
      id 16
      name RightShoulder
      direction -1.000000 0.000000 0.000000
      length 8.275398
      axis 0.0 0.0 90.0 xyz
      dof rx ry rz
   end
   begin
      id 17
      name RightArm
      direction -1.000000 0.000000 0.000000
      length 12.002200
      axis 0.0 0.0 90.0 xyz
      dof rx ry rz
   end
   begin
      id 18
      name RightForeArm
      direction -1.000000 0.000000 0.000000
      length 10.144633
      axis 0.0 0.0 90.0 xyz
      dof ry rz rx
   end
   begin
      id 19
      name RightHand
      direction 0.000000 0.000000 0.000000
      length 0.000000
      axis 0.0 0.0 90.0 xyz
      dof rx ry rz
   end
   begin
      id 20
      name RightHand_dum1
      direction 0.000000 0.000000 0.000000
      length 0.000000
      axis 0.0 0.0 90.0 xyz
   end
   begin
      id 21
      name RightHand_dum2
      direction -1.000000 0.000000 0.000000
      length 3.937000
      axis 0.0 0.0 90.0 xyz
   end
   begin
      id 22
      name RightHandThumb1
      direction 0.000000 0.000000 1.000000
      length 3.937000
      axis 0.0 0.0 90.0 xyz
      dof rx rz ry
   end
   begin
      id 23
      name LeftUpLeg
      direction 0.000000 -1.000000 0.000000
      length 19.394322
      axis 0.0 0.0 0.0 xyz
      dof rx ry rz
   end
   begin
      id 24
      name LeftLeg
      direction 0.000000 -1.000000 0.000000
      length 17.609563
      axis 0.0 0.0 0.0 xyz
      dof rx ry rz
   end
   begin
      id 25
      name LeftFoot
      direction 0.000000 -0.258819 0.965926
      length 6.085393
      axis 15.0 0.0 0.0 xyz
      dof rx ry rz
   end
   begin
      id 26
      name LeftToeBase
      direction 0.000000 0.000000 1.000000
      length 2.952750
      axis 0.0 0.0 0.0 xyz
      dof rx ry rz
   end
   begin
      id 27
      name RightUpLeg
      direction 0.000000 -1.000000 0.000000
      length 19.394322
      axis 0.0 0.0 0.0 xyz
      dof rx ry rz
   end
   begin
      id 28
      name RightLeg
      direction 0.000000 -1.000000 0.000000
      length 17.609563
      axis 0.0 0.0 0.0 xyz
      dof rx ry rz
   end
   begin
      id 29
      name RightFoot
      direction 0.000000 -0.258819 0.965926
      length 6.085393
      axis 15.0 0.0 0.0 xyz
      dof rx ry rz
   end
   begin
      id 30
      name RightToeBase
      direction 0.000000 0.000000 1.000000
      length 2.952750
      axis 0.0 0.0 0.0 xyz
      dof rx ry rz
   end
:hierarchy
   begin
      root Spine_dum LeftUpLeg_dum RightUpLeg_dum
      Spine_dum Spine
      LeftUpLeg_dum LeftUpLeg
      RightUpLeg_dum RightUpLeg
      Spine Spine_dum1 Spine_dum2 Spine_dum3
      Spine_dum1 Head
      Spine_dum2 LeftShoulder
      Spine_dum3 RightShoulder
      LeftShoulder LeftArm
      LeftArm LeftForeArm
      LeftForeArm LeftHand
      LeftHand LeftHand_dum1 LeftHand_dum2
      LeftHand_dum1 LeftHandThumb1
      RightShoulder RightArm
      RightArm RightForeArm
      RightForeArm RightHand
      RightHand RightHand_dum1 RightHand_dum2
      RightHand_dum1 RightHandThumb1
      LeftUpLeg LeftLeg
      LeftLeg LeftFoot
      LeftFoot LeftToeBase
      RightUpLeg RightLeg
      RightLeg RightFoot
      RightFoot RightToeBase
   end

# File created by Blade
# Date/Time:  Wed Jan 28 15:40:07 2015
# Frame Rate: 120.000 fps
#------------------------------------------------------
:FULLY-SPECIFIED
:DEGREES
865
root -7.349103 40.521814 -15.673251 19.473790 -46.453436 42.519582
Spine 13.529952 -3.002724 18.643321
Head -18.557140 -31.454919 -12.547776
LeftShoulder -17.700955 15.954452 -10.464551
LeftArm 8.388306 12.759440 -85.922567
LeftForeArm -10.509340 -0.000000 8.217786
LeftHand 0.290848 -0.000000 -10.603654
LeftHandThumb1 -26.253704 0.000000 33.147579
RightShoulder -11.655235 9.286081 -41.821512
RightArm 15.854867 77.876589 47.493674
RightForeArm 8.115798 0.000000 89.899867
RightHand -6.766864 -0.000000 -39.667465
RightHandThumb1 -24.326973 -0.000000 -32.862282
LeftUpLeg -16.792306 -4.853944 18.037110
LeftLeg 150.554870 -0.000000 -0.000000
LeftFoot 14.872412 4.634950 -29.076289
LeftToeBase 8.955752 -0.000000 -0.000000
RightUpLeg -55.199418 -10.226662 -18.672965
RightLeg 19.633896 -0.000000 -0.000000
RightFoot -25.057772 -20.110068 15.670634
RightToeBase 10.326191 -0.000000 -0.000000
866
root -7.378493 40.517280 -15.680280 19.614638 -46.391841 42.364702
Spine 13.529089 -3.100888 18.718739
Head -18.469179 -31.250466 -12.604491
LeftShoulder -17.758502 15.965684 -10.459580
LeftArm 8.435683 12.877245 -85.978172
LeftForeArm -10.567108 -0.000000 8.105395
LeftHand 0.284213 -0.000000 -10.714229
LeftHandThumb1 -26.253704 0.000000 33.147579
RightShoulder -11.644638 9.342648 -41.655246
RightArm 15.677130 78.029410 47.625204
RightForeArm 8.166699 -0.000000 90.221925
RightHand -6.766289 -0.000000 -39.692463
RightHandThumb1 -24.326973 -0.000000 -32.862282
LeftUpLeg -16.771408 -4.829925 18.061757
LeftLeg 150.563512 -0.000000 -0.000000
LeftFoot 15.003583 4.657243 -29.071146
LeftToeBase 8.836009 -0.000000 -0.000000
RightUpLeg -55.153711 -10.198197 -18.548456
RightLeg 19.575712 -0.000000 -0.000000
RightFoot -25.041842 -20.162884 15.610575
RightToeBase 10.247530 -0.000000 -0.000000
867
root -7.406199 40.512241 -15.687124 19.716101 -46.366141 42.247709
Spine 13.558801 -3.185197 18.746225
Head -18.478689 -31.184977 -12.595740
LeftShoulder -17.825800 15.938720 -10.449905
LeftArm 8.493673 13.060601 -85.999148
LeftForeArm -10.702843 -0.000000 7.960317
LeftHand 0.280896 0.000000 -10.811673
LeftHandThumb1 -26.253704 0.000000 33.147579
RightShoulder -11.641851 9.388082 -41.493120
RightArm 15.474343 78.170498 47.732218
RightForeArm 8.228602 -0.000000 90.531524
RightHand -6.774836 -0.000000 -39.778303
RightHandThumb1 -24.326973 -0.000000 -32.862282
LeftUpLeg -16.719794 -4.798730 18.048473
LeftLeg 150.598350 -0.000000 -0.000000
LeftFoot 14.981990 4.611784 -28.851949
LeftToeBase 9.112975 -0.000000 -0.000000
RightUpLeg -55.120910 -10.128271 -18.478276
RightLeg 19.542140 -0.000000 -0.000000
RightFoot -25.063918 -20.224414 15.604078
RightToeBase 10.204203 -0.000000 -0.000000
868
root -7.434559 40.505902 -15.691191 19.825875 -46.356231 42.140468
Spine 13.600019 -3.259559 18.750723
Head -18.616865 -31.145290 -12.492712
LeftShoulder -17.909898 15.917595 -10.497205
LeftArm 8.555233 13.139331 -85.973243
LeftForeArm -10.823707 -0.000000 7.873326
LeftHand 0.319326 -0.000000 -10.840639
LeftHandThumb1 -26.253704 0.000000 33.147579
RightShoulder -11.706956 9.338645 -41.266225
RightArm 15.657992 78.299419 48.135368
RightForeArm 8.293043 -0.000000 90.778633
RightHand -6.857855 -0.000000 -39.953802
RightHandThumb1 -24.326973 -0.000000 -32.862282
LeftUpLeg -16.692100 -4.766624 18.032913
LeftLeg 150.598451 -0.000000 -0.000000
LeftFoot 15.068819 4.636398 -28.992539
LeftToeBase 9.091853 -0.000000 -0.000000
RightUpLeg -55.111097 -10.062955 -18.400268
RightLeg 19.512673 -0.000000 -0.000000
RightFoot -25.062826 -20.299260 15.555822
RightToeBase 10.166850 -0.000000 -0.000000
869
root -7.459110 40.498190 -15.697277 19.918241 -46.358510 42.040091
Spine 13.617141 -3.264895 18.760286
Head -18.600538 -31.118304 -12.475155
LeftShoulder -17.794987 15.860926 -10.440610
LeftArm 8.439385 13.115505 -86.035062
LeftForeArm -10.945879 -0.000000 7.871560
LeftHand 0.330997 -0.000000 -10.855946
LeftHandThumb1 -26.253704 0.000000 33.147579
RightShoulder -11.757258 9.088489 -41.037050
RightArm 16.574692 78.584075 49.264562
RightForeArm 8.361573 -0.000000 90.973391
RightHand -6.852848 -0.000000 -40.028005
RightHandThumb1 -24.326973 -0.000000 -32.862282
LeftUpLeg -16.667779 -4.753914 18.026681
LeftLeg 150.593382 -0.000000 -0.000000
LeftFoot 15.195124 4.642935 -29.060623
LeftToeBase 8.911173 -0.000000 -0.000000
RightUpLeg -55.114083 -9.996169 -18.324232
RightLeg 19.508295 -0.000000 -0.000000
RightFoot -25.076254 -20.359676 15.508371
RightToeBase 10.156000 -0.000000 -0.000000
870
root -7.483716 40.489820 -15.701551 20.083783 -46.369274 41.953615
Spine 13.521045 -3.195706 18.775792
Head -18.592166 -31.210548 -12.439786
LeftShoulder -17.837396 15.966590 -10.472216
LeftArm 8.585368 13.241420 -85.983900
LeftForeArm -10.991740 -0.000000 7.783506
LeftHand 0.285426 -0.000000 -10.887820
LeftHandThumb1 -26.253704 0.000000 33.147579
RightShoulder -11.814353 8.975284 -40.868820
RightArm 16.407215 78.736312 49.332068
RightForeArm 8.442646 -0.000000 91.169862
RightHand -6.977120 -0.000000 -40.186992
RightHandThumb1 -24.326973 -0.000000 -32.862282
LeftUpLeg -16.720909 -4.716215 18.003857
LeftLeg 150.583955 -0.000000 -0.000000
LeftFoot 15.213751 4.648492 -29.069405
LeftToeBase 8.969879 -0.000000 -0.000000
RightUpLeg -55.202538 -9.957962 -18.242286
RightLeg 19.511407 -0.000000 -0.000000
RightFoot -25.060198 -20.430291 15.435473
RightToeBase 9.964409 -0.000000 -0.000000
871
root -7.504420 40.482275 -15.706223 20.111129 -46.375042 41.926699
Spine 13.567552 -3.246222 18.733477
Head -18.707318 -31.231016 -12.354970
LeftShoulder -17.818341 15.891658 -10.431790
LeftArm 8.529197 13.189484 -86.027428
LeftForeArm -10.983279 -0.000000 7.763501
LeftHand 0.267556 -0.000000 -10.899170
LeftHandThumb1 -26.253704 0.000000 33.147579
RightShoulder -11.830584 8.892861 -40.721048
RightArm 16.493645 78.983835 49.652352
RightForeArm 8.499234 -0.000000 91.311133
RightHand -7.096642 -0.000000 -40.254556
RightHandThumb1 -24.326973 -0.000000 -32.862282
LeftUpLeg -16.715383 -4.721459 17.946860
LeftLeg 150.594925 -0.000000 -0.000000
LeftFoot 15.139704 4.651757 -28.996646
LeftToeBase 9.177895 -0.000000 -0.000000
RightUpLeg -55.223326 -9.928361 -18.200087
RightLeg 19.559145 -0.000000 -0.000000
RightFoot -25.083674 -20.472869 15.368787
RightToeBase 9.927646 -0.000000 -0.000000
872
root -7.524895 40.474661 -15.709473 20.155297 -46.380566 41.894598
Spine 13.597319 -3.282270 18.707463
Head -18.791336 -31.216331 -12.326336
LeftShoulder -17.747231 15.732383 -10.366574
LeftArm 8.351928 13.150480 -86.103877
LeftForeArm -10.825603 -0.000000 7.743910
LeftHand 0.405053 -0.000000 -10.844184
LeftHandThumb1 -26.253704 0.000000 33.147579
RightShoulder -11.862187 8.800840 -40.587708
RightArm 16.476716 79.202169 49.868038
RightForeArm 8.552276 -0.000000 91.435545
RightHand -7.117294 0.000000 -40.317066
RightHandThumb1 -24.326973 -0.000000 -32.862282
LeftUpLeg -16.727276 -4.742897 17.903873
LeftLeg 150.596212 -0.000000 -0.000000
LeftFoot 15.072295 4.658036 -29.016907
LeftToeBase 9.220842 -0.000000 -0.000000
RightUpLeg -55.257664 -9.901527 -18.155395
RightLeg 19.614411 -0.000000 -0.000000
RightFoot -25.118558 -20.500848 15.340291
RightToeBase 9.870568 -0.000000 -0.000000
